<?xml version="1.0" encoding="UTF-8"?>
<svg id="Camada_1" data-name="Camada 1" xmlns="http://www.w3.org/2000/svg" viewBox="0 0 163.07 45.78" width="500" height="80">
  <defs>
    <style>
      .cls-1 {
        fill: #ff7bac;
        stroke: #ff7bac;
        stroke-miterlimit: 10;
        stroke-width: .25px;
      }
      
      @keyframes animate-svg-stroke-1 {
        0% {
          stroke-dashoffset: 220.53639221191406px;
          stroke-dasharray: 220.53639221191406px;
        }
        100% {
          stroke-dashoffset: 0;
          stroke-dasharray: 220.53639221191406px;
        }
      }
      
      @keyframes animate-svg-fill-1 {
        0% {
          fill: transparent;
        }
        100% {
          fill: rgb(255, 123, 172);
        }
      }
      
      @keyframes animate-svg-stroke-2 {
        0% {
          stroke-dashoffset: 135.04730224609375px;
          stroke-dasharray: 135.04730224609375px;
        }
        100% {
          stroke-dashoffset: 0;
          stroke-dasharray: 135.04730224609375px;
        }
      }
      
      @keyframes animate-svg-fill-2 {
        0% {
          fill: transparent;
        }
        100% {
          fill: rgb(255, 123, 172);
        }
      }
      
      @keyframes animate-svg-stroke-3 {
        0% {
          stroke-dashoffset: 211.6630401611328px;
          stroke-dasharray: 211.6630401611328px;
        }
        100% {
          stroke-dashoffset: 0;
          stroke-dasharray: 211.6630401611328px;
        }
      }
      
      @keyframes animate-svg-fill-3 {
        0% {
          fill: transparent;
        }
        100% {
          fill: rgb(255, 123, 172);
        }
      }
      
      @keyframes animate-svg-stroke-4 {
        0% {
          stroke-dashoffset: 123.91461181640625px;
          stroke-dasharray: 123.91461181640625px;
        }
        100% {
          stroke-dashoffset: 0;
          stroke-dasharray: 123.91461181640625px;
        }
      }
      
      @keyframes animate-svg-fill-4 {
        0% {
          fill: transparent;
        }
        100% {
          fill: rgb(255, 123, 172);
        }
      }
      
      @keyframes animate-svg-stroke-5 {
        0% {
          stroke-dashoffset: 104.26725769042969px;
          stroke-dasharray: 104.26725769042969px;
        }
        100% {
          stroke-dashoffset: 0;
          stroke-dasharray: 104.26725769042969px;
        }
      }
      
      @keyframes animate-svg-fill-5 {
        0% {
          fill: transparent;
        }
        100% {
          fill: rgb(255, 123, 172);
        }
      }
      
      @keyframes animate-svg-stroke-6 {
        0% {
          stroke-dashoffset: 145.98422241210938px;
          stroke-dasharray: 145.98422241210938px;
        }
        100% {
          stroke-dashoffset: 0;
          stroke-dasharray: 145.98422241210938px;
        }
      }
      
      @keyframes animate-svg-fill-6 {
        0% {
          fill: transparent;
        }
        100% {
          fill: rgb(255, 123, 172);
        }
      }
      
      @keyframes animate-svg-stroke-7 {
        0% {
          stroke-dashoffset: 112.86228942871094px;
          stroke-dasharray: 112.86228942871094px;
        }
        100% {
          stroke-dashoffset: 0;
          stroke-dasharray: 112.86228942871094px;
        }
      }
      
      @keyframes animate-svg-fill-7 {
        0% {
          fill: transparent;
        }
        100% {
          fill: rgb(255, 123, 172);
        }
      }
      
      .svg-elem-1 {
        animation: animate-svg-stroke-1 1s cubic-bezier(0.47, 0, 0.745, 0.715) 0s both,
                   animate-svg-fill-1 0.7s cubic-bezier(0.47, 0, 0.745, 0.715) 0.8s both;
      }
      
      .svg-elem-2 {
        animation: animate-svg-stroke-2 1s cubic-bezier(0.47, 0, 0.745, 0.715) 0.12s both,
                   animate-svg-fill-2 0.7s cubic-bezier(0.47, 0, 0.745, 0.715) 0.9s both;
      }
      
      .svg-elem-3 {
        animation: animate-svg-stroke-3 1s cubic-bezier(0.47, 0, 0.745, 0.715) 0.24s both,
                   animate-svg-fill-3 0.7s cubic-bezier(0.47, 0, 0.745, 0.715) 1s both;
      }
      
      .svg-elem-4 {
        animation: animate-svg-stroke-4 1s cubic-bezier(0.47, 0, 0.745, 0.715) 0.36s both,
                   animate-svg-fill-4 0.7s cubic-bezier(0.47, 0, 0.745, 0.715) 1.1s both;
      }
      
      .svg-elem-5 {
        animation: animate-svg-stroke-5 1s cubic-bezier(0.47, 0, 0.745, 0.715) 0.48s both,
                   animate-svg-fill-5 0.7s cubic-bezier(0.47, 0, 0.745, 0.715) 1.2s both;
      }
      
      .svg-elem-6 {
        animation: animate-svg-stroke-6 1s cubic-bezier(0.47, 0, 0.745, 0.715) 0.6s both,
                   animate-svg-fill-6 0.7s cubic-bezier(0.47, 0, 0.745, 0.715) 1.3s both;
      }
      
      .svg-elem-7 {
        animation: animate-svg-stroke-7 1s cubic-bezier(0.47, 0, 0.745, 0.715) 0.72s both,
                   animate-svg-fill-7 0.7s cubic-bezier(0.47, 0, 0.745, 0.715) 1.4s both;
      }
    </style>
  </defs>
  <path class="cls-1 svg-elem-1" d="M4.15,43.23c-2.69-1.62-4.03-4.09-4.03-7.42,0-1.76.32-3.11.96-4.03.64-.93,1.58-1.39,2.82-1.39.91,0,1.64.22,2.22.67.57.45.86,1.02.86,1.73,0,.64-.05,1.2-.15,1.68,0,.13-.02.35-.08.67-.05.32-.08.66-.08,1.01,0,1.44.76,2.51,2.29,3.22,1.53.7,3.67,1.06,6.42,1.06s5.09-.49,6.7-1.46,2.42-2.34,2.42-4.11c0-1.09-.37-2.02-1.11-2.81-.74-.78-1.66-1.44-2.77-1.97s-2.67-1.18-4.68-1.95c-2.58-.96-4.69-1.87-6.32-2.74-1.63-.87-3.02-2.04-4.18-3.53-1.16-1.49-1.74-3.34-1.74-5.55s.65-4.35,1.94-6.15c1.29-1.79,3.15-3.19,5.59-4.18,2.43-.99,5.29-1.49,8.58-1.49,2.45,0,4.7.34,6.75,1.03,2.05.69,3.68,1.74,4.91,3.15,1.22,1.41,1.84,3.14,1.84,5.19s-.32,3.54-.96,4.56c-.64,1.02-1.58,1.54-2.82,1.54-.87,0-1.6-.26-2.19-.77-.59-.51-.88-1.12-.88-1.83,0-.61.05-1.17.15-1.68.1-.96.15-1.57.15-1.83,0-1.34-.69-2.37-2.06-3.07-1.38-.7-3.09-1.06-5.14-1.06-2.89,0-5.09.5-6.62,1.51-1.53,1.01-2.29,2.43-2.29,4.25,0,1.22.39,2.26,1.18,3.12.79.86,1.77,1.58,2.95,2.16,1.17.58,2.82,1.27,4.93,2.06,2.55.99,4.6,1.89,6.14,2.69,1.54.8,2.86,1.89,3.95,3.27,1.09,1.38,1.64,3.07,1.64,5.09,0,3.78-1.5,6.68-4.51,8.72-3,2.03-7.02,3.05-12.06,3.05-4.46,0-8.04-.81-10.72-2.42Z"/>
  <path class="cls-1 svg-elem-2" d="M36.93,43.35c-1.24-1.44-1.86-3.33-1.86-5.67,0-2.56.62-4.99,1.86-7.28,1.24-2.29,2.89-4.13,4.96-5.52s4.25-2.09,6.57-2.09c.74,0,1.23.14,1.49.41.25.27.46.76.63,1.46.7-.13,1.44-.19,2.22-.19,1.64,0,2.47.56,2.47,1.68,0,.67-.25,2.27-.76,4.8-.77,3.68-1.16,6.24-1.16,7.68,0,.48.13.86.38,1.15.25.29.58.43.98.43.64,0,1.41-.39,2.32-1.18.91-.78,2.13-2.06,3.68-3.82.4-.45.86-.67,1.36-.67.44,0,.78.19,1.03.58.25.38.38.91.38,1.58,0,1.28-.32,2.27-.96,2.98-1.38,1.63-2.84,3.01-4.38,4.13-1.54,1.12-3.04,1.68-4.48,1.68-1.11,0-2.12-.36-3.05-1.08-.92-.72-1.62-1.71-2.09-2.95-1.75,2.69-3.94,4.03-6.6,4.03-2.08,0-3.74-.72-4.98-2.16ZM45.84,39.41c.67-.83,1.16-1.94,1.46-3.31l1.86-8.84c-1.41.03-2.71.54-3.9,1.51-1.19.98-2.14,2.27-2.84,3.87-.7,1.6-1.06,3.3-1.06,5.09,0,.99.21,1.73.63,2.21.42.48,1,.72,1.74.72s1.44-.42,2.11-1.25Z"/>
  <path class="cls-1 svg-elem-3" d="M87.18,31.15c.23.42.35.95.35,1.58,0,.8-.12,1.42-.35,1.85-.23.43-.6.73-1.11.89-2.01.67-4.23,1.06-6.65,1.15-.67,2.66-1.94,4.8-3.8,6.44-1.86,1.63-3.92,2.45-6.17,2.45-3.39,0-5.86-1.23-7.4-3.7-1.54-2.46-2.32-6.04-2.32-10.71,0-4.13.54-8.62,1.61-13.47,1.07-4.85,2.64-8.98,4.71-12.39,2.06-3.41,4.52-5.11,7.38-5.11,1.54,0,2.79.63,3.73,1.9.94,1.27,1.41,2.91,1.41,4.92,0,2.63-.52,5.23-1.56,7.83-1.04,2.59-2.77,5.31-5.19,8.16,2.25.16,4.08,1.05,5.49,2.67,1.41,1.62,2.25,3.61,2.52,5.98,1.58-.1,3.46-.42,5.64-.96.2-.06.44-.1.7-.1.44,0,.77.21,1.01.62ZM72.42,39.17c.81-.83,1.34-2.03,1.61-3.6-1.04-.67-1.84-1.55-2.39-2.64-.55-1.09-.83-2.24-.83-3.46,0-.45.07-1.06.2-1.83h-.15c-1.38,0-2.53.65-3.45,1.95-.92,1.3-1.38,3.03-1.38,5.21,0,1.83.36,3.22,1.08,4.18.72.96,1.57,1.44,2.54,1.44,1.04,0,1.96-.42,2.77-1.25ZM70.08,7.74c-.79,1.91-1.52,4.49-2.19,7.76-.67,3.27-1.18,6.84-1.51,10.71,2.22-3.87,3.99-7.29,5.31-10.25,1.33-2.96,1.99-5.6,1.99-7.9,0-1.02-.13-1.81-.38-2.35-.25-.54-.6-.82-1.03-.82-.67,0-1.4.95-2.19,2.86Z"/>
  <path class="cls-1 svg-elem-4" d="M84.08,43.59c-.52-1.28-.78-3.33-.78-6.15,0-4.16.62-8.12,1.86-11.86.3-.93.8-1.61,1.49-2.04.69-.43,1.65-.65,2.9-.65.67,0,1.14.08,1.41.24.27.16.4.46.4.91,0,.51-.25,1.67-.76,3.46-.34,1.28-.6,2.4-.81,3.36-.2.96-.37,2.15-.5,3.55,1.11-2.75,2.35-4.99,3.73-6.72,1.38-1.73,2.73-2.96,4.05-3.7,1.33-.74,2.54-1.1,3.65-1.1,2.18,0,3.27,1.04,3.27,3.12,0,.42-.15,1.42-.45,3.03-.27,1.28-.4,2.08-.4,2.4,0,1.12.42,1.68,1.26,1.68.94,0,2.15-.7,3.63-2.11.44-.42.89-.62,1.36-.62.44,0,.78.18,1.03.55.25.37.38.86.38,1.46,0,1.18-.34,2.11-1.01,2.79-.94.93-2.04,1.72-3.3,2.38-1.26.66-2.59.98-4,.98-1.78,0-3.13-.43-4.05-1.3-.92-.86-1.38-2.03-1.38-3.51,0-.48.05-.96.15-1.44.07-.64.1-1.07.1-1.3,0-.51-.19-.77-.55-.77-.5,0-1.17.54-1.99,1.61-.82,1.07-1.64,2.49-2.44,4.25-.81,1.76-1.46,3.62-1.96,5.57-.37,1.5-.8,2.52-1.28,3.05-.49.53-1.25.79-2.29.79-1.28,0-2.17-.64-2.69-1.92Z"/>
  <path class="cls-1 svg-elem-5" d="M107.54,43.3c-.99-1.47-1.49-3.43-1.49-5.86,0-1.44.19-3.29.58-5.55.39-2.26.88-4.36,1.49-6.32.3-1.02.7-1.73,1.21-2.11.5-.38,1.31-.58,2.42-.58,1.71,0,2.57.54,2.57,1.63,0,.8-.32,2.66-.96,5.57-.81,3.52-1.21,5.91-1.21,7.16,0,.96.13,1.7.4,2.21.27.51.72.77,1.36.77.6,0,1.36-.4,2.27-1.2s2.11-2.07,3.63-3.79c.4-.45.86-.67,1.36-.67.44,0,.78.19,1.03.58.25.38.38.91.38,1.58,0,1.28-.32,2.27-.96,2.98-3.32,3.88-6.43,5.81-9.31,5.81-2.18,0-3.77-.74-4.76-2.21ZM109.53,18.78c-.7-.62-1.06-1.5-1.06-2.62s.46-2.06,1.38-2.81c.92-.75,2.07-1.13,3.45-1.13,1.24,0,2.25.29,3.02.86.77.58,1.16,1.39,1.16,2.45,0,1.28-.44,2.3-1.31,3.05-.87.75-2.03,1.13-3.47,1.13s-2.47-.31-3.17-.94Z"/>
  <path class="cls-1 svg-elem-6" d="M119.37,43.59c-.52-1.28-.78-3.33-.78-6.15,0-4.16.62-8.12,1.86-11.86.3-.93.8-1.61,1.49-2.04.69-.43,1.65-.65,2.9-.65.67,0,1.14.08,1.41.24.27.16.4.46.4.91,0,.51-.25,1.67-.76,3.46-.34,1.28-.6,2.4-.81,3.36-.2.96-.37,2.15-.5,3.55,1.11-2.75,2.35-4.99,3.73-6.72,1.38-1.73,2.73-2.96,4.05-3.7,1.33-.74,2.54-1.1,3.65-1.1,2.18,0,3.27,1.04,3.27,3.12,0,1.25-.37,3.51-1.11,6.77-.64,2.79-.96,4.63-.96,5.52,0,1.28.49,1.92,1.46,1.92.67,0,1.47-.39,2.39-1.18.92-.78,2.16-2.06,3.7-3.82.4-.45.86-.67,1.36-.67.44,0,.78.19,1.03.58.25.38.38.91.38,1.58,0,1.28-.32,2.27-.96,2.98-1.44,1.7-3,3.09-4.66,4.18-1.66,1.09-3.55,1.63-5.66,1.63-1.71,0-3-.47-3.88-1.42-.87-.94-1.31-2.31-1.31-4.11,0-.9.23-2.5.7-4.8.44-2.02.65-3.41.65-4.18,0-.51-.19-.77-.55-.77-.44,0-1.05.54-1.84,1.61-.79,1.07-1.59,2.49-2.42,4.25-.82,1.76-1.49,3.62-1.99,5.57-.37,1.5-.8,2.52-1.28,3.05-.49.53-1.25.79-2.29.79-1.28,0-2.17-.64-2.69-1.92Z"/>
  <path class="cls-1 svg-elem-7" d="M144.6,43.35c-1.19-1.44-1.79-3.33-1.79-5.67,0-2.56.62-4.99,1.86-7.28,1.24-2.29,2.89-4.13,4.96-5.52s4.25-2.09,6.57-2.09c.74,0,1.23.14,1.48.41.25.27.46.76.63,1.46.64-.13,1.34-.19,2.11-.19s1.43.19,1.86.58c.44.38.65.93.65,1.63s-.17,2.02-.5,3.84c-.37,1.95-.66,3.82-.86,5.59-.2,1.78-.3,3.77-.3,5.98,0,1.22-.26,2.09-.78,2.62-.52.53-1.37.79-2.54.79s-1.99-.26-2.54-.79c-.55-.53-.83-1.38-.83-2.57l.05-.77c-1.04,2.75-2.84,4.13-5.39,4.13-1.91,0-3.47-.72-4.66-2.16ZM153.79,38.79c.77-1.25,1.46-3.47,2.06-6.68l.96-4.85c-1.38.03-2.65.54-3.83,1.51-1.18.98-2.12,2.27-2.82,3.87-.7,1.6-1.06,3.3-1.06,5.09,0,.96.19,1.69.58,2.18.39.5.9.75,1.54.75.94,0,1.8-.62,2.57-1.87Z"/>
</svg>